HIERARCHY
ROOT Hips
{
	OFFSET 0.000000 0.000000 0.000000
	CHANNELS 6 Xposition Yposition Zposition Zrotation Yrotation Xrotation 
	JOINT LHipJoint
	{
		OFFSET 0.000000 0.000000 0.000000
		CHANNELS 3 Zrotation Yrotation Xrotation
		JOINT LeftUpLeg
		{
			OFFSET 1.363060 -1.794630 0.839290
			CHANNELS 3 Zrotation Yrotation Xrotation
			JOINT LeftLeg
			{
				OFFSET 2.448110 -6.726130 0.000000
				CHANNELS 3 Zrotation Yrotation Xrotation
				JOINT LeftFoot
				{
					OFFSET 2.562200 -7.039590 0.000000
					CHANNELS 3 Zrotation Yrotation Xrotation
					JOINT LeftToeBase
					{
						OFFSET 0.157640 -0.433110 2.322550
						CHANNELS 3 Zrotation Yrotation Xrotation
						End Site
						{
							OFFSET 0.000000 0.000000 0.000000
						}
					}
				}
			}
		}
	}
	JOINT RHipJoint
	{
		OFFSET 0.000000 0.000000 0.000000
		CHANNELS 3 Zrotation Yrotation Xrotation
		JOINT RightUpLeg
		{
			OFFSET -1.305520 -1.794630 0.839290
			CHANNELS 3 Zrotation Yrotation Xrotation
			JOINT RightLeg
			{
				OFFSET -2.542530 -6.985550 0.000000
				CHANNELS 3 Zrotation Yrotation Xrotation
				JOINT RightFoot
				{
					OFFSET -2.568260 -7.056230 0.000000
					CHANNELS 3 Zrotation Yrotation Xrotation
					JOINT RightToeBase
					{
						OFFSET -0.164730 -0.452590 2.363150
						CHANNELS 3 Zrotation Yrotation Xrotation
						End Site
						{
							OFFSET 0.000000 0.000000 0.000000
						}
					}
				}
			}
		}
	}
	JOINT LowerBack
	{
		OFFSET 0.000000 0.000000 0.000000
		CHANNELS 3 Zrotation Yrotation Xrotation
		JOINT Spine
		{
			OFFSET 0.028270 2.035590 -0.193380
			CHANNELS 3 Zrotation Yrotation Xrotation
			JOINT Spine1
			{
				OFFSET 0.056720 2.048850 -0.042750
				CHANNELS 3 Zrotation Yrotation Xrotation
				JOINT Neck
				{
					OFFSET 0.000000 0.000000 0.000000
					CHANNELS 3 Zrotation Yrotation Xrotation
					JOINT Neck1
					{
						OFFSET -0.054170 1.746240 0.172020
						CHANNELS 3 Zrotation Yrotation Xrotation
						JOINT Head
						{
							OFFSET 0.104070 1.761360 -0.123970
							CHANNELS 3 Zrotation Yrotation Xrotation
							End Site
							{
								OFFSET 0.000000 0.000000 0.000000
							}
						}
					}
				}
				JOINT LeftShoulder
				{
					OFFSET 0.000000 0.000000 0.000000
					CHANNELS 3 Zrotation Yrotation Xrotation
					JOINT LeftArm
					{
						OFFSET 3.362410 1.200890 -0.311210
						CHANNELS 3 Zrotation Yrotation Xrotation
						JOINT LeftForeArm
						{
							OFFSET 4.983000 -0.000000 -0.000000
							CHANNELS 3 Zrotation Yrotation Xrotation
							JOINT LeftHand
							{
								OFFSET 3.483560 -0.000000 -0.000000
								CHANNELS 3 Zrotation Yrotation Xrotation
								JOINT LeftFingerBase
								{
									OFFSET 0.000000 0.000000 0.000000
									CHANNELS 3 Zrotation Yrotation Xrotation
									JOINT LeftHandIndex1
									{
										OFFSET 0.715260 -0.000000 -0.000000
										CHANNELS 3 Zrotation Yrotation Xrotation
										End Site
										{
											OFFSET 0.000000 0.000000 0.000000
										}
									}
								}
								JOINT LThumb
								{
									OFFSET 0.000000 0.000000 0.000000
									CHANNELS 3 Zrotation Yrotation Xrotation
									End Site
									{
										OFFSET 0.000000 0.000000 0.000000
									}
								}
							}
						}
					}
				}
				JOINT RightShoulder
				{
					OFFSET 0.000000 0.000000 0.000000
					CHANNELS 3 Zrotation Yrotation Xrotation
					JOINT RightArm
					{
						OFFSET -3.136600 1.374050 -0.404650
						CHANNELS 3 Zrotation Yrotation Xrotation
						JOINT RightForeArm
						{
							OFFSET -5.241900 -0.000000 -0.000000
							CHANNELS 3 Zrotation Yrotation Xrotation
							JOINT RightHand
							{
								OFFSET -3.444170 -0.000000 -0.000000
								CHANNELS 3 Zrotation Yrotation Xrotation
								JOINT RightFingerBase
								{
									OFFSET 0.000000 0.000000 0.000000
									CHANNELS 3 Zrotation Yrotation Xrotation
									JOINT RightHandIndex1
									{
										OFFSET -0.622530 -0.000000 -0.000000
										CHANNELS 3 Zrotation Yrotation Xrotation
										End Site
										{
											OFFSET 0.000000 0.000000 0.000000
										}
									}
								}
								JOINT RThumb
								{
									OFFSET 0.000000 0.000000 0.000000
									CHANNELS 3 Zrotation Yrotation Xrotation
									End Site
									{
										OFFSET 0.000000 0.000000 0.000000
									}
								}
							}
						}
					}
				}
			}
		}
	}
}
MOTION
Frames: 4
Frame Time: 0.008333
-2.352986 17.732994 -0.719450 23.015105 82.722364 25.779906 -10.514387 1.286497 0.428532 -16.200992 16.671801 -28.328815 -3.165977 -0.157714 3.810901 -0.079710 -0.000921 17.247567 0.333800 0.000000 -40.650200 10.148651 -4.028155 -0.387204 4.211121 -8.179856 5.520436 -0.022141 -2.369814 25.456447 -1.716611 -9.667111 16.508631 -3.962000 -0.000001 -66.572899 -2.283568 1.964818 -2.088615 -0.636204 2.093441 -2.593383 -3.338061 2.010922 3.054772 6.139753 -13.319087 -11.101747 -0.226704 0.034704 -0.908024 0.000000 0.000000 0.000000 -6.599439 32.515770 1.908092 -80.915166 39.329506 -5.608536 -4.320519 -23.130088 -0.035052 -7.385096 9.641997 -0.629523 -0.072745 -0.173916 -0.000000 0.000000 0.000000 0.000000 0.000000 0.000000 0.000000 2.163426 -6.961919 -0.098399 45.376385 6.981344 5.444145 1.464640 52.188132 0.010168 3.516954 1.101890 0.038529 0.019467 -0.145797 0.000000 0.000000 0.000000 0.000000 0.000000 0.000000 0.000000 
-2.117182 17.770174 -0.729195 21.534267 82.549074 23.945643 -10.626335 1.340767 0.500382 -15.639434 16.471277 -27.369310 -3.090458 -0.121497 3.584118 -0.104152 -0.572944 18.174236 0.077700 -0.000000 -41.411400 10.198047 -3.972618 -0.517240 3.950094 -8.689042 5.021369 -0.203715 -2.471562 27.636111 -2.006769 -11.463585 16.944772 -4.746600 -0.000000 -64.336999 -2.129297 1.983194 -2.055894 -0.605794 2.103286 -2.563139 -3.334743 2.023982 3.139322 6.153424 -13.506559 -11.026256 -0.191382 0.036505 -0.888147 0.000000 0.000000 0.000000 -6.412916 32.809891 1.933775 -81.422014 39.481822 -6.667904 -4.387523 -22.546195 -0.037866 -7.778941 10.466099 -0.719755 -0.073215 -0.177897 -0.000000 0.000000 0.000000 0.000000 0.000000 0.000000 0.000000 2.110380 -7.200064 -0.189437 45.500879 6.935416 5.103846 1.442150 52.306343 0.010311 3.593689 1.128810 0.040213 0.016107 -0.146379 0.000000 0.000000 0.000000 0.000000 0.000000 0.000000 0.000000 
-1.883381 17.795219 -0.736607 20.353848 82.429049 22.414228 -10.722943 1.394428 0.581263 -15.034069 16.105745 -26.351721 -2.987078 -0.081602 3.556157 -0.093870 -0.757304 18.829949 -0.026300 0.000000 -41.619600 10.255085 -3.894985 -0.682166 3.685325 -9.279209 4.462909 -0.360766 -2.566522 29.905126 -2.324619 -13.499148 16.703473 -5.549500 -0.000000 -61.751700 -1.998979 1.974900 -1.983578 -0.579251 2.089606 -2.528798 -3.336915 2.013909 3.212920 6.197293 -13.714389 -10.973012 -0.160962 0.038329 -0.874770 0.000000 0.000000 0.000000 -6.176193 33.013655 1.968900 -81.912466 39.526555 -7.577744 -4.455448 -22.001846 -0.040707 -8.220180 11.241420 -0.817087 -0.073507 -0.181352 -0.000000 0.000000 0.000000 0.000000 0.000000 0.000000 0.000000 2.099683 -7.457162 -0.271355 45.732467 6.844289 4.714203 1.428026 52.416765 0.010477 3.660691 1.177310 0.042601 0.013414 -0.147280 0.000000 0.000000 0.000000 0.000000 0.000000 0.000000 0.000000 
-1.651238 17.807751 -0.742404 19.327255 82.359516 21.055400 -10.806633 1.447589 0.674707 -14.397202 15.590038 -25.313483 -2.862242 -0.039799 3.712269 -0.058662 -0.615737 19.195938 0.009500 -0.000000 -41.272300 10.311094 -3.803719 -0.872727 3.430400 -9.933464 3.834088 -0.490032 -2.659281 32.226231 -2.652145 -15.621485 15.835372 -6.258300 0.000000 -58.892701 -1.876499 1.943858 -1.887349 -0.553457 2.054630 -2.493610 -3.342856 1.982590 3.274877 6.260895 -13.932466 -10.939538 -0.136390 0.040028 -0.866969 0.000000 0.000000 0.000000 -5.909902 33.126901 2.009910 -82.380139 39.468562 -8.348441 -4.520812 -21.497779 -0.043361 -8.668017 11.920107 -0.914015 -0.073780 -0.183942 -0.000000 0.000000 0.000000 0.000000 0.000000 0.000000 0.000000 2.122650 -7.722768 -0.342596 46.056606 6.700654 4.293591 1.422930 52.513919 0.010672 3.734241 1.234433 0.045292 0.011272 -0.148159 0.000000 0.000000 0.000000 0.000000 0.000000 0.000000 0.000000 
